<svg data-v-fde0c5aa="" xmlns="http://www.w3.org/2000/svg" viewBox="0 0 300 300" class="iconAbove"><!----><defs data-v-fde0c5aa=""><!----></defs><rect data-v-fde0c5aa="" fill="#0B173D" x="0" y="0" width="300px" height="300px" class="logo-background-square"></rect><defs data-v-fde0c5aa=""><!----></defs><g data-v-fde0c5aa="" id="e9c93dc6-fd53-49da-8ea3-665f83262779" fill="#D1A103" transform="matrix(5.157706819817568,0,0,5.157706819817568,14.429676413252263,170.91430122895912)"><path d="M6.50 8.15L6.50 8.15Q8.36 8.75 8.36 10.72L8.36 10.72L8.36 10.72Q8.36 12.04 7.50 12.78L7.50 12.78L7.50 12.78Q6.65 13.51 5.17 13.51L5.17 13.51L1.08 13.51L1.08 3.71L4.77 3.71L4.77 3.71Q7.57 3.71 7.57 6.08L7.57 6.08L7.57 6.08Q7.57 7.53 6.50 8.15L6.50 8.15ZM2.87 5.31L2.87 7.56L4.51 7.56L4.51 7.56Q5.17 7.56 5.49 7.29L5.49 7.29L5.49 7.29Q5.81 7.01 5.81 6.44L5.81 6.44L5.81 6.44Q5.81 5.84 5.49 5.57L5.49 5.57L5.49 5.57Q5.17 5.31 4.51 5.31L4.51 5.31L2.87 5.31ZM4.90 11.91L4.90 11.91Q5.68 11.91 6.10 11.60L6.10 11.60L6.10 11.60Q6.51 11.28 6.51 10.53L6.51 10.53L6.51 10.53Q6.51 9.79 6.08 9.47L6.08 9.47L6.08 9.47Q5.66 9.16 4.90 9.16L4.90 9.16L2.87 9.16L2.87 11.91L4.90 11.91ZM12.75 13.65L12.75 13.65Q11.65 13.65 10.84 13.16L10.84 13.16L10.84 13.16Q10.02 12.67 9.59 11.84L9.59 11.84L9.59 11.84Q9.16 11.02 9.16 10.02L9.16 10.02L9.16 10.02Q9.16 9.03 9.59 8.19L9.59 8.19L9.59 8.19Q10.02 7.35 10.84 6.86L10.84 6.86L10.84 6.86Q11.65 6.37 12.75 6.37L12.75 6.37L12.75 6.37Q13.86 6.37 14.67 6.86L14.67 6.86L14.67 6.86Q15.48 7.35 15.92 8.19L15.92 8.19L15.92 8.19Q16.35 9.03 16.35 10.02L16.35 10.02L16.35 10.02Q16.35 11.02 15.92 11.84L15.92 11.84L15.92 11.84Q15.48 12.67 14.67 13.16L14.67 13.16L14.67 13.16Q13.86 13.65 12.75 13.65L12.75 13.65ZM12.75 12.22L12.75 12.22Q13.61 12.22 14.09 11.62L14.09 11.62L14.09 11.62Q14.57 11.02 14.57 10.02L14.57 10.02L14.57 10.02Q14.57 9.02 14.09 8.41L14.09 8.41L14.09 8.41Q13.61 7.80 12.75 7.80L12.75 7.80L12.75 7.80Q11.90 7.80 11.42 8.41L11.42 8.41L11.42 8.41Q10.93 9.02 10.93 10.02L10.93 10.02L10.93 10.02Q10.93 11.02 11.42 11.62L11.42 11.62L11.42 11.62Q11.90 12.22 12.75 12.22L12.75 12.22ZM20.73 13.65L20.73 13.65Q19.63 13.65 18.82 13.16L18.82 13.16L18.82 13.16Q18.00 12.67 17.57 11.84L17.57 11.84L17.57 11.84Q17.14 11.02 17.14 10.02L17.14 10.02L17.14 10.02Q17.14 9.03 17.57 8.19L17.57 8.19L17.57 8.19Q18.00 7.35 18.82 6.86L18.82 6.86L18.82 6.86Q19.63 6.37 20.73 6.37L20.73 6.37L20.73 6.37Q21.84 6.37 22.65 6.86L22.65 6.86L22.65 6.86Q23.46 7.35 23.90 8.19L23.90 8.19L23.90 8.19Q24.33 9.03 24.33 10.02L24.33 10.02L24.33 10.02Q24.33 11.02 23.90 11.84L23.90 11.84L23.90 11.84Q23.46 12.67 22.65 13.16L22.65 13.16L22.65 13.16Q21.84 13.65 20.73 13.65L20.73 13.65ZM20.73 12.22L20.73 12.22Q21.59 12.22 22.07 11.62L22.07 11.62L22.07 11.62Q22.55 11.02 22.55 10.02L22.55 10.02L22.55 10.02Q22.55 9.02 22.07 8.41L22.07 8.41L22.07 8.41Q21.59 7.80 20.73 7.80L20.73 7.80L20.73 7.80Q19.88 7.80 19.40 8.41L19.40 8.41L19.40 8.41Q18.91 9.02 18.91 10.02L18.91 10.02L18.91 10.02Q18.91 11.02 19.40 11.62L19.40 11.62L19.40 11.62Q19.88 12.22 20.73 12.22L20.73 12.22ZM25.52 13.51L25.52 3.01L27.26 3.01L27.26 9.38L29.43 6.51L31.39 6.51L28.84 9.87L31.44 13.51L29.48 13.51L27.26 10.40L27.26 13.51L25.52 13.51ZM34.31 13.65L34.31 13.65Q33.64 13.65 33.09 13.52L33.09 13.52L33.09 13.52Q32.54 13.40 31.95 13.13L31.95 13.13L32.10 11.65L32.10 11.65Q32.69 12.00 33.20 12.17L33.20 12.17L33.20 12.17Q33.71 12.35 34.26 12.35L34.26 12.35L34.26 12.35Q35.32 12.35 35.32 11.65L35.32 11.65L35.32 11.65Q35.32 11.27 35.04 11.07L35.04 11.07L35.04 11.07Q34.76 10.86 34.03 10.58L34.03 10.58L34.03 10.58Q33.00 10.21 32.51 9.72L32.51 9.72L32.51 9.72Q32.02 9.24 32.02 8.41L32.02 8.41L32.02 8.41Q32.02 7.50 32.72 6.94L32.72 6.94L32.72 6.94Q33.42 6.37 34.61 6.37L34.61 6.37L34.61 6.37Q35.80 6.37 36.78 6.92L36.78 6.92L36.62 8.40L36.62 8.40Q36.09 8.04 35.62 7.84L35.62 7.84L35.62 7.84Q35.15 7.64 34.64 7.64L34.64 7.64L34.64 7.64Q34.19 7.64 33.94 7.83L33.94 7.83L33.94 7.83Q33.70 8.01 33.70 8.34L33.70 8.34L33.70 8.34Q33.70 8.61 33.84 8.78L33.84 8.78L33.84 8.78Q33.99 8.95 34.26 9.08L34.26 9.08L34.26 9.08Q34.52 9.21 35.14 9.45L35.14 9.45L35.14 9.45Q36.16 9.84 36.61 10.31L36.61 10.31L36.61 10.31Q37.06 10.78 37.06 11.56L37.06 11.56L37.06 11.56Q37.06 12.56 36.34 13.10L36.34 13.10L36.34 13.10Q35.63 13.65 34.31 13.65L34.31 13.65ZM38.08 13.51L38.08 11.61L39.90 11.61L39.90 13.51L38.08 13.51ZM41.36 5.45L41.36 3.71L43.09 3.71L43.09 5.45L41.36 5.45ZM41.36 13.51L41.36 6.51L43.09 6.51L43.09 13.51L41.36 13.51ZM47.89 13.65L47.89 13.65Q46.79 13.65 45.98 13.16L45.98 13.16L45.98 13.16Q45.16 12.67 44.73 11.84L44.73 11.84L44.73 11.84Q44.30 11.02 44.30 10.02L44.30 10.02L44.30 10.02Q44.30 9.03 44.73 8.19L44.73 8.19L44.73 8.19Q45.16 7.35 45.98 6.86L45.98 6.86L45.98 6.86Q46.79 6.37 47.89 6.37L47.89 6.37L47.89 6.37Q49 6.37 49.81 6.86L49.81 6.86L49.81 6.86Q50.62 7.35 51.06 8.19L51.06 8.19L51.06 8.19Q51.49 9.03 51.49 10.02L51.49 10.02L51.49 10.02Q51.49 11.02 51.06 11.84L51.06 11.84L51.06 11.84Q50.62 12.67 49.81 13.16L49.81 13.16L49.81 13.16Q49 13.65 47.89 13.65L47.89 13.65ZM47.89 12.22L47.89 12.22Q48.75 12.22 49.23 11.62L49.23 11.62L49.23 11.62Q49.71 11.02 49.71 10.02L49.71 10.02L49.71 10.02Q49.71 9.02 49.23 8.41L49.23 8.41L49.23 8.41Q48.75 7.80 47.89 7.80L47.89 7.80L47.89 7.80Q47.04 7.80 46.56 8.41L46.56 8.41L46.56 8.41Q46.07 9.02 46.07 10.02L46.07 10.02L46.07 10.02Q46.07 11.02 46.56 11.62L46.56 11.62L46.56 11.62Q47.04 12.22 47.89 12.22L47.89 12.22Z"></path></g><defs data-v-fde0c5aa=""><!----></defs><g data-v-fde0c5aa="" id="fffd8f55-d5ae-4488-9993-00211898236c" stroke="none" fill="#D1A103" transform="matrix(1.6626171360003816,0,0,1.6626171360003816,65.25141109461819,31.04198130696481)"><path clip-rule="evenodd" d="M92.818 23.216V72.1s-13.907-3.91-24.24-1.923c-9.255 1.779-16.066 6.8-17.215 7.687v.148l-.096-.075-.095.075v-.148c-1.148-.887-7.959-5.907-17.211-7.687C23.626 68.189 8.357 72.1 8.357 72.1V23.071l-2.858.429v52.662s16.64-4.282 27.959-2.104c11.131 2.141 17.856 8.581 17.856 8.581s6.725-6.44 17.855-8.581c11.321-2.179 27.278 2.104 27.278 2.104V23.727c.001 0-1.388-.235-3.629-.511zM33.121 65.229c9.051 1.739 16.046 6.978 16.046 6.978V24.113s-7.032-5.245-16.104-6.989c-9.183-1.766-21.179 1.723-21.179 1.723v48.094s12.034-3.482 21.237-1.712zm56.163 1.888V19.023s-10.996-3.49-20.175-1.723c-9.072 1.743-16.335 6.987-16.335 6.987v48.095s7.223-5.237 16.276-6.979c9.202-1.767 20.234 1.714 20.234 1.714z"></path></g><!----></svg>