<svg data-v-423bf9ae="" xmlns="http://www.w3.org/2000/svg" viewBox="0 0 82.66248032669077 60" class="icon"><!----><!----><!----><!----><g data-v-423bf9ae="" id="4b701080-899f-426d-958a-135a240b90cf" transform="matrix(0.908898218405457,0,0,0.908898218405457,-4.998032265312311,-15.11043981533382)" stroke="none" fill="black"><path clip-rule="evenodd" d="M92.818 23.216V72.1s-13.907-3.91-24.24-1.923c-9.255 1.779-16.066 6.8-17.215 7.687v.148l-.096-.075-.095.075v-.148c-1.148-.887-7.959-5.907-17.211-7.687C23.626 68.189 8.357 72.1 8.357 72.1V23.071l-2.858.429v52.662s16.64-4.282 27.959-2.104c11.131 2.141 17.856 8.581 17.856 8.581s6.725-6.44 17.855-8.581c11.321-2.179 27.278 2.104 27.278 2.104V23.727c.001 0-1.388-.235-3.629-.511zM33.121 65.229c9.051 1.739 16.046 6.978 16.046 6.978V24.113s-7.032-5.245-16.104-6.989c-9.183-1.766-21.179 1.723-21.179 1.723v48.094s12.034-3.482 21.237-1.712zm56.163 1.888V19.023s-10.996-3.49-20.175-1.723c-9.072 1.743-16.335 6.987-16.335 6.987v48.095s7.223-5.237 16.276-6.979c9.202-1.767 20.234 1.714 20.234 1.714z"></path></g><!----></svg>